<svg width="16" height="19" viewBox="0 0 16 19" fill="none" xmlns="http://www.w3.org/2000/svg">
<path d="M0.5 2.7561C0.5 2.09306 0.763392 1.45718 1.23223 0.988337C1.70107 0.519496 2.33696 0.256104 3 0.256104H13C13.663 0.256104 14.2989 0.519496 14.7678 0.988337C15.2366 1.45718 15.5 2.09306 15.5 2.7561V17.2811C15.5002 17.5771 15.4217 17.8678 15.2724 18.1233C15.1231 18.3788 14.9084 18.59 14.6504 18.7351C14.3925 18.8802 14.1005 18.954 13.8046 18.9489C13.5087 18.9438 13.2195 18.86 12.9667 18.7061L8 15.6728L3.03333 18.7061C2.78113 18.8596 2.49267 18.9434 2.19746 18.9489C1.90225 18.9543 1.61089 18.8813 1.35319 18.7372C1.09548 18.5931 0.88069 18.3831 0.730781 18.1287C0.580872 17.8743 0.501229 17.5847 0.5 17.2894V2.7561Z" fill="#262626"/>
</svg>
