<svg width="22" height="22" viewBox="0 0 22 22" fill="none" xmlns="http://www.w3.org/2000/svg">
<g clip-path="url(#clip0_4755_805)">
<path d="M2.74992 5.49992H11.9166C12.4028 5.49992 12.8691 5.30676 13.2129 4.96295C13.5568 4.61913 13.7499 4.15281 13.7499 3.66658C13.7499 3.18035 13.5568 2.71404 13.2129 2.37022C12.8691 2.02641 12.4028 1.83325 11.9166 1.83325L2.74992 1.83325C2.26369 1.83325 1.79737 2.02641 1.45355 2.37022C1.10974 2.71404 0.916584 3.18035 0.916584 3.66658C0.916584 4.15281 1.10974 4.61913 1.45355 4.96295C1.79737 5.30676 2.26369 5.49992 2.74992 5.49992ZM18.3333 6.41658C19.0626 6.41658 19.7621 6.12685 20.2778 5.61113C20.7935 5.0954 21.0833 4.39593 21.0833 3.66658C21.0833 2.93724 20.7935 2.23776 20.2778 1.72204C19.7621 1.20631 19.0626 0.916584 18.3333 0.916584C17.6039 0.916584 16.9044 1.20631 16.3887 1.72204C15.873 2.23776 15.5833 2.93724 15.5833 3.66658C15.5833 4.39593 15.873 5.0954 16.3887 5.61113C16.9044 6.12685 17.6039 6.41658 18.3333 6.41658ZM2.74992 12.8333H11.9166C12.4028 12.8333 12.8691 12.6401 13.2129 12.2963C13.5568 11.9525 13.7499 11.4861 13.7499 10.9999C13.7499 10.5137 13.5568 10.0474 13.2129 9.70356C12.8691 9.35974 12.4028 9.16658 11.9166 9.16658H2.74992C2.26369 9.16658 1.79737 9.35974 1.45355 9.70356C1.10974 10.0474 0.916584 10.5137 0.916584 10.9999C0.916584 11.4861 1.10974 11.9525 1.45355 12.2963C1.79737 12.6401 2.26369 12.8333 2.74992 12.8333ZM18.3333 13.7499C19.0626 13.7499 19.7621 13.4602 20.2778 12.9445C20.7935 12.4287 21.0833 11.7293 21.0833 10.9999C21.0833 10.2706 20.7935 9.5711 20.2778 9.05537C19.7621 8.53965 19.0626 8.24992 18.3333 8.24992C17.6039 8.24992 16.9044 8.53965 16.3887 9.05537C15.873 9.5711 15.5833 10.2706 15.5833 10.9999C15.5833 11.7293 15.873 12.4287 16.3887 12.9445C16.9044 13.4602 17.6039 13.7499 18.3333 13.7499ZM11.9166 16.4999L2.74992 16.4999C2.26369 16.4999 1.79737 16.6931 1.45355 17.0369C1.10974 17.3807 0.916584 17.847 0.916584 18.3333C0.916584 18.8195 1.10974 19.2858 1.45355 19.6296C1.79737 19.9734 2.26369 20.1666 2.74992 20.1666L11.9166 20.1666C12.4028 20.1666 12.8691 19.9734 13.2129 19.6296C13.5568 19.2858 13.7499 18.8195 13.7499 18.3333C13.7499 17.847 13.5568 17.3807 13.2129 17.0369C12.8691 16.6931 12.4028 16.4999 11.9166 16.4999ZM15.5833 18.3333C15.5833 17.9721 15.6544 17.6145 15.7926 17.2809C15.9308 16.9472 16.1333 16.6441 16.3887 16.3887C16.6441 16.1333 16.9472 15.9308 17.2809 15.7926C17.6145 15.6544 17.9721 15.5833 18.3333 15.5833C18.6944 15.5833 19.052 15.6544 19.3856 15.7926C19.7193 15.9308 20.0224 16.1333 20.2778 16.3887C20.5332 16.6441 20.7357 16.9472 20.8739 17.2809C21.0121 17.6145 21.0833 17.9721 21.0833 18.3333C21.0833 19.0626 20.7935 19.7621 20.2778 20.2778C19.7621 20.7935 19.0626 21.0833 18.3333 21.0833C17.6039 21.0833 16.9044 20.7935 16.3887 20.2778C15.873 19.7621 15.5833 19.0626 15.5833 18.3333Z" fill="#262626"/>
</g>
<defs>
<clipPath id="clip0_4755_805">
<rect width="22" height="22" fill="white" transform="matrix(-1 0 0 -1 22 22)"/>
</clipPath>
</defs>
</svg>
