<svg width="22" height="22" viewBox="0 0 22 22" fill="none" xmlns="http://www.w3.org/2000/svg">
<g clip-path="url(#clip0_4755_791)">
<path d="M1 1.42285C0.734784 1.42285 0.48043 1.52821 0.292893 1.71574C0.105357 1.90328 0 2.15764 0 2.42285V13.4229C0 13.6881 0.105357 13.9424 0.292893 14.13C0.48043 14.3175 0.734784 14.4229 1 14.4229H9C9.26522 14.4229 9.51957 14.3175 9.70711 14.13C9.89464 13.9424 10 13.6881 10 13.4229V2.42285C10 2.15764 9.89464 1.90328 9.70711 1.71574C9.51957 1.52821 9.26522 1.42285 9 1.42285H1ZM13 11.4229C12.7348 11.4229 12.4804 11.5282 12.2929 11.7157C12.1054 11.9033 12 12.1576 12 12.4229V22.4229C12 22.6881 12.1054 22.9424 12.2929 23.13C12.4804 23.3175 12.7348 23.4229 13 23.4229H21C21.2652 23.4229 21.5196 23.3175 21.7071 23.13C21.8946 22.9424 22 22.6881 22 22.4229V12.4229C22 12.1576 21.8946 11.9033 21.7071 11.7157C21.5196 11.5282 21.2652 11.4229 21 11.4229H13ZM0 22.4229C0 22.6881 0.105357 22.9424 0.292893 23.13C0.48043 23.3175 0.734784 23.4229 1 23.4229H9C9.26522 23.4229 9.51957 23.3175 9.70711 23.13C9.89464 22.9424 10 22.6881 10 22.4229V17.4229C10 17.1576 9.89464 16.9033 9.70711 16.7157C9.51957 16.5282 9.26522 16.4229 9 16.4229H1C0.734784 16.4229 0.48043 16.5282 0.292893 16.7157C0.105357 16.9033 0 17.1576 0 17.4229V22.4229ZM13 1.42285C12.7348 1.42285 12.4804 1.52821 12.2929 1.71574C12.1054 1.90328 12 2.15764 12 2.42285V8.42285C12 8.68807 12.1054 8.94242 12.2929 9.12996C12.4804 9.31749 12.7348 9.42285 13 9.42285H21C21.2652 9.42285 21.5196 9.31749 21.7071 9.12996C21.8946 8.94242 22 8.68807 22 8.42285V2.42285C22 2.15764 21.8946 1.90328 21.7071 1.71574C21.5196 1.52821 21.2652 1.42285 21 1.42285H13Z" fill="#262626"/>
</g>
<defs>
<clipPath id="clip0_4755_791">
<rect width="22" height="22" fill="white"/>
</clipPath>
</defs>
</svg>
