<svg width="22" height="22" viewBox="0 0 22 22" fill="none" xmlns="http://www.w3.org/2000/svg">
<path d="M13.3566 17.6762C14.7861 16.2468 15.2635 14.1365 14.7822 12.3137L18.849 8.05217L21.6391 7.79722L21.6229 7.78003C21.668 7.78827 21.7145 7.78555 21.7583 7.77209C21.8022 7.75863 21.8422 7.73483 21.875 7.70269C21.9025 7.67542 21.9244 7.64296 21.9394 7.60719C21.9544 7.57142 21.9622 7.53303 21.9622 7.49425C21.9623 7.45547 21.9548 7.41705 21.9399 7.38121C21.9251 7.34537 21.9034 7.31281 21.8759 7.28541L15.02 0.428558C14.9644 0.373291 14.8891 0.342351 14.8107 0.34253C14.7323 0.342709 14.6571 0.373992 14.6018 0.429512C14.5698 0.462587 14.5461 0.502759 14.5327 0.546741C14.5193 0.590722 14.5164 0.637262 14.5244 0.682551L14.5082 0.665363L14.2532 3.45642L9.99075 7.52318C8.16792 7.04097 6.05768 7.51936 4.62825 8.94783L8.26532 12.5849L3.174 17.6762C2.44639 18.4038 0.678944 20.4978 0.992138 21.3133C1.80663 21.6265 3.9016 19.8581 4.62825 19.1305L9.71957 14.0391L13.3566 17.6762Z" fill="#262626"/>
</svg>
