<svg width="22" height="22" viewBox="0 0 22 22" fill="none" xmlns="http://www.w3.org/2000/svg">
<path d="M17.4166 9.62492C17.4166 11.166 16.9596 12.6724 16.1035 13.9537C15.2473 15.2351 14.0304 16.2337 12.6067 16.8235C11.1829 17.4132 9.61628 17.5675 8.10484 17.2669C6.59341 16.9662 5.20507 16.2241 4.11538 15.1345C3.0257 14.0448 2.28361 12.6564 1.98297 11.145C1.68233 9.63356 1.83663 8.06692 2.42636 6.64318C3.01609 5.21944 4.01477 4.00254 5.2961 3.14638C6.57744 2.29023 8.08388 1.83325 9.62492 1.83325C11.6914 1.83325 13.6732 2.65416 15.1345 4.11538C16.5957 5.5766 17.4166 7.55844 17.4166 9.62492Z" stroke="#262626" stroke-width="2" stroke-linecap="round" stroke-linejoin="round"/>
<path d="M15.135 15.135L20.1666 20.1666" stroke="#262626" stroke-width="2" stroke-linecap="round" stroke-linejoin="round"/>
</svg>
